<svg width="3612" height="1811" viewBox="0 0 3612 1811" fill="none" xmlns="http://www.w3.org/2000/svg">
<path d="M2654.59 338.577C2650.95 370.937 2654.59 414.085 2654.59 447.997C2654.59 449.278 2666.05 460.537 2668.14 458.177C2700.3 302.777 2816.26 180.008 2945.5 95.9367C2966.4 94.858 2950.22 103.016 2944.22 108.207C2893.05 152.096 2846.53 187.896 2806.28 244.056C2774.93 287.945 2715.4 397.635 2702.6 448.334C2701.31 453.053 2701.04 459.795 2705.7 458.245C2764.22 422.176 2832.65 402.894 2883.82 355.836C2959.32 286.597 2970.78 193.087 3020.94 110.027C3044.95 70.5873 3077.64 35.8667 3106.09 0.0673828C2904.72 1.88769 2679.34 118.926 2654.53 338.577H2654.59ZM2389.77 240.887C2466.02 267.787 2547.8 340.127 2595.87 404.107L2641.04 471.998C2650.95 255.719 2432.38 126.208 2237.48 177.918L2360.78 338.307C2413.03 398.107 2506.54 446.446 2583.33 464.717C2592.5 466.807 2596.68 463.908 2592.97 455.076C2583.8 432.086 2496.36 335.475 2473.64 314.575C2445.66 288.687 2408.85 261.315 2374.4 246.145C2372.58 235.156 2383.3 238.864 2389.84 240.954L2389.77 240.887ZM965.766 476.178C927.608 493.167 845.627 590.048 814.817 626.117C721.847 733.987 647.417 856.487 554.65 964.357C578.92 845.497 693.06 675.198 691.509 557.417C690.498 481.167 614.989 467.548 554.38 482.178C327.383 537.327 88.1831 995.437 25.956 1205.45C17.0568 1235.51 1.14611 1279.88 0.0674139 1309.94C-1.21353 1343.38 13.6185 1365.3 14.1578 1397.45C17.7984 1411.01 75.3062 1417.54 85.9583 1395.63C92.2282 1382.28 93.7788 1309.47 98.2284 1284.6C127.218 1120.84 347.406 746.796 468.624 629.016C523.705 575.486 617.012 532.607 581.954 653.287C526.874 843.947 400.936 1036.97 346.125 1224.79C331.765 1274.15 336.956 1343.65 405.656 1325.38C443.275 1315.47 479.344 1212.05 501.255 1174.7C591.595 1020.31 701.082 863.903 834.773 745.583C761.354 909.073 642.563 1093.19 629.484 1275.56C623.214 1363.07 612.764 1477.75 733.713 1469.12C759.332 1467.3 811.513 1453.68 814.412 1422.87C756.163 1432.24 731.892 1372.17 731.892 1323.63C731.623 1133.98 868.482 873.341 954.44 704.592C976.89 660.433 1031.5 582.362 1044.04 540.832C1060.76 484.942 1016.87 453.323 965.699 476.313L965.766 476.178ZM2897.77 547.507C2804.26 552.226 2710.21 527.146 2617.24 526.337C2399.68 524.787 1828.72 607.847 1881.98 926.467C1891.15 981.548 1956.95 1001.98 2004.75 1005.35C1995.38 969.548 1965.58 954.648 1965.04 913.118C1963.49 767.899 2232.49 636.5 2360.45 643.039C2335.64 682.479 2307.19 720.099 2282.38 759.808C2265.93 786.439 2204.31 905.837 2192.78 916.489C2181.79 926.939 2114.98 939.479 2091.45 951.749C2072.91 961.66 2046.82 990.178 2038.93 1008.92C2032.12 1025.64 2073.38 1019.64 2082.82 1018.29C2091.45 1017.28 2150.24 994.021 2141.61 1015.39C2130.15 1043.84 2089.09 1098.18 2072.1 1130.81C2041.83 1187.51 1958.77 1333.74 1970.5 1391.99C1978.59 1432.51 2020.39 1405.81 2038.93 1384.91C2127.45 1282.51 2169.52 1107.55 2245.77 993.414C2304.29 970.964 2380.54 980.874 2437.24 955.525C2450.79 949.524 2495.49 919.995 2483.49 902.736C2476.68 904.286 2470.14 896.466 2466.5 895.927C2421.87 888.376 2359.44 901.388 2312.65 895.927C2357.28 823.047 2418.97 653.287 2505.94 627.398C2557.92 611.959 2601 633.938 2650.89 636.028C2764.49 641.219 2975.03 659.826 3023.84 533.349C3014.94 526.809 2918.87 546.159 2897.7 547.17L2897.77 547.507ZM3608.97 1169.65C3580.79 1195.54 3489.64 1326.33 3452.49 1319.05L3435.77 1302.06C3450.94 1233.09 3544.72 1085.24 3532.92 1020.52C3514.38 917.635 3386.62 1007.71 3345.63 1046.61C3343.27 907.388 3210.59 992.807 3153.89 1046.61C3151.26 1027.53 3165.15 1008.99 3159.62 989.908C3152.34 964.289 3112.9 965.368 3096.65 986.537C3062.95 1030.97 3045.75 1118.41 3013.06 1169.11C2996.34 1195.74 2898.11 1308.6 2873.84 1317.23C2864.67 1320.33 2855.57 1320.87 2846.13 1320.12C2843.23 1226.08 2928.11 1160.81 2955.55 1077.75C2934.38 1032.31 2895.21 1017.42 2856.31 991.796L2844.31 925.186C2795.5 889.926 2745.61 958.626 2743.72 1002.52C2743.18 1020.25 2755.18 1036.97 2755.18 1051.33C2755.18 1066.5 2666.39 1215.9 2650.41 1237.54C2634.97 1258.17 2592.43 1310.15 2567.62 1312.24L2551.98 1302.33C2545.44 1275.97 2640.5 1106.41 2652.57 1061.51C2664.03 1018.43 2654.12 1000.9 2609.76 984.987L2575.78 1012.16C2521.71 912.916 2369.41 1039.6 2323.23 1094.95C2258.44 1172.55 2179.03 1413.36 2350.13 1395.3C2394.02 1390.58 2442.83 1340.42 2456.18 1299.7L2469.73 1303.07C2450.65 1356.33 2486.45 1396.31 2541.53 1396.04C2609.15 1395.77 2685.74 1282.17 2717.02 1228.91C2749.65 1173.83 2786.26 1023.35 2865.88 1074.52C2875.79 1088.34 2796.64 1204.1 2785.18 1228.64C2764.82 1271.99 2721.94 1377.23 2796.17 1393.95C2881.59 1413.3 2931.48 1343.79 2979.28 1285.81C2983.19 1314.26 2967.01 1346.15 2979.55 1374.6C2989.46 1397.05 3021.08 1402.04 3041.44 1388.96C3065.24 1373.52 3106.5 1183.4 3131.78 1137.42C3151.6 1101.62 3269.18 988.56 3246.46 1094.88C3231.83 1163.31 3161.58 1268.28 3154.23 1337.79C3149.04 1385.86 3192.86 1417.48 3225.56 1388.49C3235.74 1379.86 3269.72 1288.98 3277 1268.89C3291.63 1228.44 3313.07 1125.76 3337.07 1101.22C3352.71 1085.04 3405.5 1047.42 3427.68 1056.32C3477.84 1092.38 3234.39 1430.35 3450.94 1395.09C3482.29 1389.9 3599.53 1263.43 3608.97 1231.6C3614.97 1211.24 3609.51 1190.07 3608.7 1169.71L3608.97 1169.65ZM2512.21 1146.93C2487.94 1191.36 2417.42 1309.67 2363.82 1312.51C2357.55 1313.05 2346.09 1309.14 2341.64 1304.69C2310.56 1273.61 2378.99 1167.29 2401.71 1139.11C2420.52 1115.85 2502.77 1034.13 2528.66 1032.79C2587.44 1029.42 2525.76 1121.85 2512.21 1146.93Z" fill="#995116"/>
<path d="M1856.36 1086.86L1831.82 1087.13C1793.19 1135.94 1669.34 1308.87 1611.63 1313.58C1605.9 1314.12 1599.9 1313.32 1594.37 1313.32C1575.03 1294.51 1677.16 1086.86 1682.62 1042.49C1702.72 880.825 1496.89 1008.52 1443.9 1060.23C1435.27 1048.97 1481.52 1000.69 1432.64 972.177C1377.76 940.018 1373.38 1030.7 1344.86 1060.43C1332.86 1072.97 1241.98 1132.77 1231.73 1121.78C1230.65 966.649 1145.3 917.298 1008.17 990.65C900.034 1048.09 807.873 1234.37 853.785 1352.42C879.404 1417.75 970.823 1419.03 1028.26 1400.76C1104.78 1375.95 1154.67 1312.51 1194.38 1245.09C1202.74 1230.73 1205.1 1208.55 1214.74 1197.29C1232 1177.2 1287.35 1168.03 1310.34 1148.95C1300.97 1201.94 1232.47 1303.61 1231.46 1350.87C1230.65 1386.94 1286.81 1410.4 1313.98 1392.13C1328.61 1382.49 1375.87 1205.92 1397.04 1181.11C1428.39 1147.67 1501 1055.98 1549.81 1059.89C1567.54 1061.44 1568.08 1075.06 1566.8 1090.43C1562.62 1130.41 1514.28 1216.57 1501.74 1265.45C1485.02 1331.25 1477.2 1414.04 1570.17 1412.22C1656.6 1410.67 1807.08 1237.74 1845.98 1164.86C1855.35 1146.86 1878.14 1101.42 1856.16 1086.79L1856.36 1086.86ZM1128.18 1192.37C1114.83 1240.71 1028.4 1357.41 969.879 1339.41C897.809 1317.5 989.498 1133.58 1019.23 1098.59L1033.32 1094.41C1039.86 1151.38 1078.22 1161.83 1120.29 1181.92C1127.37 1185.02 1131.55 1179.56 1128.11 1192.37H1128.18ZM1104.18 1105.67C1057.66 1060.5 1140.99 990.717 1155.08 1051.6C1166.34 1100.95 1157.44 1157.65 1104.18 1105.67Z" fill="#995116"/>
<path d="M814.48 1422.8C811.648 1453.55 759.332 1467.23 733.713 1469.05C612.764 1477.68 623.214 1362.87 629.552 1275.43C642.766 1093.19 761.489 908.938 834.975 745.516C701.15 863.633 591.663 1020.25 501.322 1174.57C479.479 1211.85 443.275 1315.34 405.79 1325.25C336.956 1343.52 331.833 1274.15 346.26 1224.66C401.004 1037.03 526.874 843.947 582.022 653.287C616.877 532.607 523.772 575.486 468.759 628.949C347.406 746.797 127.218 1120.84 98.2284 1284.53C93.8462 1309.34 92.363 1382.28 85.9582 1395.43C75.2387 1417.48 17.731 1410.94 14.0904 1397.32C13.6859 1365.3 -1.21357 1343.32 -3.69325e-05 1309.81C1.07866 1279.94 17.0568 1235.45 25.956 1205.45C88.183 995.504 327.248 537.124 554.38 482.111C614.922 467.481 690.363 481.032 691.307 557.283C692.857 675.13 578.92 845.497 554.515 964.356C647.08 856.284 721.78 733.987 814.615 625.915C845.425 590.048 927.54 492.965 965.632 475.976C1016.8 453.121 1060.76 484.673 1043.9 540.495C1031.36 582.093 976.958 660.231 954.508 704.255C868.482 873.139 731.623 1133.71 731.825 1323.43C731.825 1371.9 756.096 1432.04 814.412 1422.67L814.48 1422.8Z" fill="#995116"/>
<path d="M1856.36 1086.86L1831.82 1087.13C1793.19 1135.94 1669.34 1308.87 1611.63 1313.58C1605.9 1314.12 1599.9 1313.32 1594.37 1313.32C1575.03 1294.51 1677.16 1086.86 1682.62 1042.49C1702.72 880.825 1496.89 1008.52 1443.9 1060.23C1435.27 1048.97 1481.52 1000.69 1432.64 972.177C1377.76 940.018 1373.38 1030.7 1344.86 1060.43C1332.86 1072.97 1241.98 1132.77 1231.73 1121.78C1230.65 966.649 1145.3 917.298 1008.17 990.65C900.034 1048.09 807.873 1234.37 853.785 1352.42C879.404 1417.75 970.823 1419.03 1028.26 1400.76C1104.78 1375.95 1154.67 1312.51 1194.38 1245.09C1202.74 1230.73 1205.1 1208.55 1214.74 1197.29C1232 1177.2 1287.35 1168.03 1310.34 1148.95C1300.97 1201.94 1232.47 1303.61 1231.46 1350.87C1230.65 1386.94 1286.81 1410.4 1313.98 1392.13C1328.61 1382.49 1375.87 1205.92 1397.04 1181.11C1428.39 1147.67 1501 1055.98 1549.81 1059.89C1567.54 1061.44 1568.08 1075.06 1566.8 1090.43C1562.62 1130.41 1514.28 1216.57 1501.74 1265.45C1485.02 1331.25 1477.2 1414.04 1570.17 1412.22C1656.6 1410.67 1807.08 1237.74 1845.98 1164.86C1855.35 1146.86 1878.14 1101.42 1856.16 1086.79L1856.36 1086.86ZM1128.18 1192.37C1114.83 1240.71 1028.4 1357.41 969.879 1339.41C897.809 1317.5 989.498 1133.58 1019.23 1098.59L1033.32 1094.41C1039.86 1151.38 1078.22 1161.83 1120.29 1181.92C1127.37 1185.02 1131.55 1179.56 1128.11 1192.37H1128.18ZM1104.18 1105.67C1057.66 1060.5 1140.99 990.717 1155.08 1051.6C1166.34 1100.95 1157.44 1157.65 1104.18 1105.67Z" fill="#995116"/>
<path d="M2466.5 896.062C2470.14 896.668 2476.54 904.556 2483.55 903.006C2495.62 920.265 2450.92 949.862 2437.37 955.862C2380.67 981.076 2304.29 971.031 2245.84 993.549C2169.52 1107.82 2127.59 1282.84 2038.8 1385.05C2020.46 1406.15 1978.73 1432.71 1970.43 1392.13C1958.63 1333.88 2041.83 1187.78 2071.96 1130.88C2089.22 1098.38 2130.15 1043.91 2141.47 1015.66C2150.04 994.223 2091.45 1017.28 2082.68 1018.49C2073.45 1019.71 2032.12 1025.71 2039 1009.06C2046.82 990.111 2072.91 961.66 2091.31 951.884C2114.84 939.412 2181.65 926.872 2192.78 916.557C2204.24 905.905 2265.73 786.439 2282.31 759.808C2307.05 720.166 2335.5 682.479 2360.38 643.039C2232.42 636.635 1963.42 768.101 1964.97 913.253C1965.44 954.648 1995.31 969.683 2004.61 1005.48C1956.68 1001.91 1891.08 981.683 1881.85 926.467C1828.65 607.712 2399.55 524.854 2617.18 526.405C2710.08 527.079 2804.13 552.226 2897.64 547.44C2918.74 546.361 3014.94 526.944 3023.91 533.551C2974.9 659.961 2764.42 641.489 2650.82 636.365C2600.93 634.14 2557.78 612.364 2505.94 627.735C2418.9 653.557 2357.21 823.182 2312.51 895.994C2359.3 901.522 2421.87 888.511 2466.43 895.994L2466.5 896.062Z" fill="#995116"/>
<path d="M2654.66 338.577C2679.27 118.927 2904.72 1.75289 3106.09 0C3077.71 35.8667 3044.95 70.5199 3021.15 109.96C2970.99 193.154 2959.26 286.597 2883.95 355.836C2832.78 402.894 2764.28 422.243 2705.9 458.245C2701.11 459.795 2701.45 452.919 2702.66 448.199C2715.47 397.568 2774.93 287.81 2806.28 243.988C2846.47 187.828 2892.98 152.029 2944.15 108.274C2950.16 103.151 2966.4 94.9255 2945.44 95.8693C2816.13 180.008 2700.3 302.845 2668.21 458.312C2666.12 460.469 2654.59 449.48 2654.59 448.064C2654.59 414.018 2650.95 371.072 2654.59 338.644L2654.66 338.577Z" fill="#9E9019"/>
<path d="M2640.91 471.931L2595.94 404.175C2547.94 340.262 2466.02 267.787 2389.64 241.022C2383.17 238.73 2372.38 235.156 2374.27 246.213C2408.92 261.382 2445.8 288.889 2473.58 314.508C2496.23 335.408 2583.94 432.019 2593.04 455.009C2596.55 463.908 2592.37 466.942 2583.26 464.784C2506.41 446.581 2412.9 398.107 2360.72 338.374L2237.41 177.918C2432.25 126.343 2651.09 255.787 2640.91 471.931Z" fill="#9E9019"/>
<path d="M798.906 1600.05H650.721V1678.86H783.265V1702.59H650.721V1783.36H800.592V1807.09H623.282V1576.32H798.839V1600.05H798.906Z" fill="#995116"/>
<path d="M1048.35 1807.09L970.621 1707.85L892.887 1807.09H861.336L954.643 1689.38L864.774 1576.32H897.067L971.632 1670.57L1045.52 1576.32H1077.41L987.543 1689.04L1080.85 1807.02H1048.22L1048.35 1807.09Z" fill="#995116"/>
<path d="M1329.42 1682.84C1324.3 1692.28 1317.42 1700.23 1308.79 1706.57C1300.09 1712.97 1289.98 1717.69 1278.45 1720.93C1266.86 1724.1 1254.65 1725.72 1241.64 1725.72H1182.65V1807.16H1155.21V1576.38H1246.09C1259.71 1576.38 1272.18 1578.07 1283.37 1581.51C1294.57 1584.94 1304.21 1589.73 1312.16 1596C1320.12 1602.27 1326.25 1609.96 1330.57 1619.06C1334.81 1628.16 1336.97 1638.48 1336.97 1649.87C1336.97 1662.41 1334.41 1673.4 1329.35 1682.84H1329.42ZM1291.73 1613.06C1279.8 1604.63 1263.96 1600.38 1244.27 1600.38H1182.72V1701.92H1242.92C1252.9 1701.92 1262 1700.7 1270.23 1698.28C1278.45 1695.85 1285.53 1692.41 1291.46 1687.89C1297.4 1683.38 1301.91 1677.98 1305.02 1671.71C1308.12 1665.44 1309.73 1658.5 1309.73 1650.75C1309.73 1634.03 1303.73 1621.49 1291.8 1612.99L1291.73 1613.06Z" fill="#995116"/>
<path d="M1586.49 1600.05H1438.3V1678.86H1570.85V1702.59H1438.3V1783.36H1588.17V1807.09H1410.86V1576.32H1586.42V1600.05H1586.49Z" fill="#995116"/>
<path d="M1834.59 1807.09L1764.13 1717.42H1694.76V1807.09H1667.32V1576.32H1771.75C1785.17 1576.32 1797.24 1578 1808.02 1581.24C1818.81 1584.54 1827.98 1589.19 1835.6 1595.26C1843.21 1601.33 1849.15 1608.54 1853.26 1617.04C1857.44 1625.53 1859.53 1634.9 1859.53 1645.22C1859.53 1654.86 1857.91 1663.49 1854.68 1671.11C1851.44 1678.72 1846.86 1685.26 1840.99 1690.86C1835.06 1696.46 1828.11 1701.11 1820.02 1704.88C1811.93 1708.59 1803.17 1711.29 1793.66 1712.77L1868.23 1806.95H1834.59V1807.09ZM1815.84 1612.45C1804.92 1604.43 1789.62 1600.38 1769.93 1600.38H1694.83V1694.37H1769.59C1778.63 1694.37 1786.99 1693.29 1794.61 1691.06C1802.22 1688.84 1808.9 1685.74 1814.43 1681.62C1819.96 1677.51 1824.34 1672.52 1827.44 1666.59C1830.54 1660.66 1832.16 1653.91 1832.16 1646.43C1832.16 1631.87 1826.7 1620.61 1815.84 1612.52V1612.45Z" fill="#995116"/>
<path d="M1971.98 1576.32V1807.09H1944.54V1576.32H1971.98Z" fill="#995116"/>
<path d="M2242.6 1600.05H2094.48V1678.86H2227.03V1702.59H2094.48V1783.36H2244.35V1807.09H2067.04V1576.32H2242.6V1600.05Z" fill="#995116"/>
<path d="M2502.09 1576.32H2528.79V1807.09H2506.95L2350.13 1617.85V1807.09H2323.44V1576.32H2349.12L2502.16 1761.24V1576.32H2502.09Z" fill="#995116"/>
<path d="M2810.06 1787.13C2803.25 1792.06 2795.9 1796.3 2788.01 1799.81C2780.13 1803.31 2771.7 1806.08 2762.66 1808.03C2753.63 1809.99 2743.59 1811 2732.46 1811C2714.87 1811 2698.68 1807.9 2683.92 1801.76C2669.09 1795.63 2656.28 1787.2 2645.42 1776.55C2634.57 1765.9 2626.08 1753.29 2619.94 1738.79C2613.81 1724.3 2610.77 1708.73 2610.77 1692.01C2610.77 1675.29 2613.81 1660.05 2619.94 1645.55C2626.08 1631.06 2634.57 1618.38 2645.42 1607.46C2656.28 1596.61 2669.22 1588.05 2684.26 1581.78C2699.29 1575.51 2715.74 1572.41 2733.54 1572.41C2744.66 1572.41 2754.64 1573.28 2763.54 1575.03C2772.44 1576.79 2780.73 1579.28 2788.35 1582.45C2795.97 1585.62 2803.05 1589.46 2809.52 1593.98C2815.99 1598.5 2822.26 1603.49 2828.26 1608.95L2809.52 1628.09C2799.14 1618.86 2787.95 1611.31 2776.01 1605.37C2764.08 1599.44 2749.79 1596.47 2733.14 1596.47C2719.72 1596.47 2707.31 1598.9 2695.85 1603.76C2684.39 1608.61 2674.48 1615.28 2665.99 1623.85C2657.56 1632.41 2650.95 1642.45 2646.23 1653.98C2641.51 1665.51 2639.15 1677.98 2639.15 1691.4C2639.15 1704.82 2641.51 1717.36 2646.23 1728.95C2650.95 1740.61 2657.56 1750.73 2665.99 1759.29C2674.41 1767.85 2684.39 1774.59 2695.85 1779.58C2707.31 1784.5 2719.72 1787 2733.14 1787C2749.79 1787 2764.15 1784.1 2776.15 1778.23C2788.15 1772.44 2799.95 1764.21 2811.54 1753.69L2829.61 1770.48C2823.34 1776.62 2816.8 1782.21 2809.99 1787.13H2810.06Z" fill="#995116"/>
<path d="M3077.04 1600.05H2928.92V1678.86H3061.46V1702.59H2928.92V1783.36H3078.79V1807.09H2901.48V1576.32H3077.04V1600.05Z" fill="#995116"/>
</svg>
