<svg width="1111" height="839" viewBox="0 0 1111 839" fill="none" xmlns="http://www.w3.org/2000/svg">
<path d="M127.227 555.966C69.3965 468.041 36.7117 374.781 36.7117 318.9C36.7117 291.584 44.5786 284.434 46.1707 283.261C50.9469 279.742 66.3528 275.732 97.2113 275.732C114.865 275.732 137.576 277.056 166.233 280.499C172.18 281.218 178.174 282.012 184.261 282.883C186.322 283.185 188.429 283.526 190.489 283.828C194.563 284.434 198.637 285.039 202.805 285.72C205.286 286.136 207.815 286.552 210.297 286.969C214.136 287.612 217.929 288.255 221.816 288.936C224.485 289.428 227.154 289.92 229.776 290.411C233.569 291.13 237.362 291.849 241.155 292.606C243.871 293.135 246.634 293.703 249.35 294.27C253.19 295.065 257.029 295.859 260.916 296.692C263.632 297.259 266.395 297.865 269.111 298.47C273.091 299.34 277.071 300.248 281.051 301.194C283.72 301.799 286.389 302.405 289.059 303.048C293.273 304.069 297.534 305.091 301.795 306.15C304.23 306.756 306.665 307.323 309.1 307.966C309.709 308.118 310.318 308.269 310.88 308.42C310.552 309.177 310.271 309.896 309.99 310.615C308.304 314.587 306.665 318.56 305.026 322.532C304.371 324.197 303.762 325.824 303.106 327.451C301.936 330.477 300.718 333.466 299.594 336.455C298.892 338.309 298.236 340.201 297.534 342.054C296.504 344.816 295.521 347.54 294.537 350.264C293.835 352.194 293.179 354.161 292.524 356.091C291.634 358.701 290.697 361.312 289.855 363.922C289.199 365.928 288.59 367.895 287.935 369.862C287.139 372.397 286.343 374.932 285.547 377.429C284.938 379.434 284.376 381.439 283.767 383.407C283.065 385.866 282.316 388.363 281.66 390.784C281.098 392.789 280.583 394.757 280.021 396.762C279.365 399.183 278.757 401.605 278.101 404.026C277.586 405.993 277.118 407.961 276.65 409.928C276.088 412.312 275.526 414.733 274.964 417.116C274.542 419.084 274.074 421.013 273.699 422.943C273.184 425.326 272.716 427.672 272.248 430.056C271.873 431.985 271.499 433.915 271.124 435.806C270.703 438.19 270.281 440.536 269.907 442.881C269.579 444.773 269.251 446.627 268.97 448.518C268.595 450.902 268.268 453.248 267.94 455.593C267.706 457.409 267.425 459.225 267.191 461.041C266.863 463.463 266.629 465.808 266.348 468.23C266.16 469.97 265.973 471.711 265.786 473.413C265.552 475.872 265.364 478.331 265.177 480.791C265.037 482.38 264.896 484.007 264.802 485.595C264.615 488.282 264.522 490.968 264.381 493.616C264.334 494.94 264.241 496.265 264.194 497.589C264.053 501.561 264.006 505.496 264.006 509.431C264.006 516.089 264.1 522.635 264.334 529.104C264.381 530.769 264.522 532.396 264.568 534.06C264.756 538.79 264.943 543.557 265.271 548.21C265.458 550.859 265.739 553.431 265.926 556.08C266.207 559.636 266.488 563.268 266.816 566.749C267.097 569.473 267.472 572.121 267.799 574.807C268.221 578.099 268.549 581.466 269.017 584.72C269.438 587.519 269.907 590.244 270.375 593.005C270.656 594.632 270.89 596.221 271.171 597.848C283.954 600.686 296.832 603.296 309.756 605.717C303.762 576.472 300.718 544.389 300.718 509.393C300.718 448.254 317.904 379.131 351.759 303.956C362.904 279.25 375.64 254.318 389.875 229.575C394.605 221.327 399.522 213.079 404.579 204.869C469.714 99.0486 536.067 35.9042 555.453 29.7373C574.839 35.9042 641.192 99.0486 706.327 204.869C726.509 237.671 744.257 271.003 759.101 303.956C792.956 379.131 810.141 448.254 810.141 509.393C810.141 544.919 806.957 577.494 800.776 607.117C813.7 604.847 826.577 602.388 839.361 599.778C839.735 597.583 840.063 595.351 840.438 593.119C840.906 590.281 841.421 587.519 841.796 584.644C842.264 581.428 842.592 578.099 843.013 574.845C843.341 572.121 843.716 569.435 843.997 566.673C844.371 563.192 844.605 559.598 844.886 556.042C845.12 553.393 845.401 550.821 845.542 548.135C845.87 543.481 846.057 538.752 846.244 533.985C846.291 532.32 846.432 530.693 846.478 529.029C846.666 522.559 846.806 516.014 846.806 509.355C846.806 505.42 846.713 501.486 846.619 497.513C846.619 496.189 846.478 494.865 846.432 493.541C846.338 490.854 846.197 488.206 846.01 485.52C845.916 483.931 845.776 482.304 845.635 480.715C845.448 478.256 845.261 475.797 845.027 473.337C844.839 471.597 844.652 469.857 844.465 468.154C844.184 465.771 843.95 463.387 843.622 461.004C843.388 459.188 843.107 457.372 842.873 455.556C842.545 453.21 842.217 450.826 841.843 448.481C841.562 446.627 841.234 444.735 840.906 442.881C840.485 440.536 840.11 438.152 839.642 435.806C839.267 433.915 838.893 431.985 838.518 430.056C838.05 427.672 837.581 425.326 837.066 422.905C836.645 420.976 836.223 419.008 835.802 417.079C835.24 414.695 834.725 412.274 834.116 409.89C833.648 407.923 833.18 405.956 832.665 403.988C832.056 401.567 831.4 399.145 830.745 396.686C830.23 394.719 829.668 392.752 829.153 390.746C828.45 388.287 827.748 385.79 826.999 383.293C826.437 381.326 825.828 379.358 825.219 377.353C824.423 374.818 823.627 372.284 822.831 369.711C822.222 367.744 821.567 365.776 820.911 363.809C820.068 361.198 819.132 358.55 818.242 355.939C817.587 354.01 816.931 352.08 816.229 350.151C815.245 347.389 814.215 344.627 813.185 341.827C812.529 340.011 811.874 338.195 811.171 336.342C810.001 333.315 808.783 330.25 807.613 327.186C807.004 325.597 806.395 324.008 805.74 322.419C804.101 318.333 802.368 314.209 800.635 310.085C800.401 309.517 800.167 308.95 799.933 308.345V308.269C800.495 308.118 801.104 307.966 801.712 307.815C804.147 307.21 806.582 306.604 809.017 305.999C813.279 304.94 817.54 303.88 821.754 302.897C824.423 302.253 827.045 301.648 829.715 301.043C833.742 300.135 837.722 299.189 841.702 298.319C844.418 297.713 847.134 297.146 849.85 296.54C853.736 295.708 857.623 294.876 861.51 294.119C864.225 293.552 866.941 293.022 869.611 292.492C873.497 291.736 877.337 291.017 881.13 290.298C883.752 289.806 886.374 289.314 888.997 288.86C892.93 288.141 896.817 287.498 900.703 286.855C903.138 286.439 905.62 286.023 908.008 285.644C912.222 284.963 916.39 284.358 920.511 283.715C922.524 283.412 924.538 283.11 926.551 282.807C932.639 281.937 938.679 281.142 944.626 280.423C1023.43 270.889 1057.2 277.661 1064.69 283.147C1066.28 284.32 1074.15 291.471 1074.15 318.787C1074.15 376.18 1039.73 473.073 978.903 563.041L979.09 562.965C996.697 557.555 1014.26 551.729 1031.72 545.524C1083.47 459.301 1110.86 372.284 1110.86 318.787C1110.86 291.017 1103.65 271.646 1089.37 261.204C1064.83 243.195 1006.58 244.141 956.286 249.211C944.954 209.069 922.571 153.075 883.846 141.006C846.057 129.24 776.988 155.723 730.115 177.478C682.633 103.551 600.406 0 555.5 0C510.594 0 428.367 103.551 380.698 177.591C333.824 155.837 264.802 129.353 226.967 141.12C188.242 153.189 165.859 209.183 154.527 249.324C104.235 244.292 45.9833 243.346 21.4464 261.317C7.2112 271.759 -0.046875 291.13 -0.046875 318.9C-0.046875 369.976 24.9115 451.621 72.2529 533.909C90.2342 541.741 108.543 549.118 127.18 555.966H127.227ZM870.828 168.814C884.501 173.089 904.964 201.351 920.042 253.751H919.761C919.293 253.864 918.778 253.94 918.31 254.015C912.691 254.81 907.025 255.68 901.312 256.626C899.392 256.929 897.425 257.269 895.505 257.572C891.057 258.328 886.608 259.085 882.066 259.88C880.006 260.258 877.899 260.636 875.838 261.015C870.875 261.923 865.911 262.868 860.854 263.852C859.402 264.155 857.951 264.42 856.452 264.722C850.037 266.009 843.575 267.371 837.066 268.771C835.474 269.111 833.835 269.489 832.196 269.868C827.233 270.965 822.269 272.1 817.259 273.235C815.058 273.765 812.81 274.294 810.609 274.824C805.974 275.921 801.338 277.056 796.702 278.229C794.595 278.759 792.488 279.288 790.38 279.818C789.444 280.045 788.461 280.272 787.524 280.537C787.384 280.234 787.196 279.894 787.056 279.591C784.574 274.294 781.952 269.035 779.329 263.739C778.627 262.301 777.878 260.863 777.175 259.464C774.319 253.826 771.416 248.227 768.419 242.59C768.232 242.211 767.998 241.833 767.81 241.455C764.954 236.12 762.051 230.823 759.054 225.527C758.258 224.089 757.462 222.689 756.619 221.251C753.435 215.614 750.157 209.977 746.832 204.34V204.264C811.921 173.808 856.359 164.387 870.828 168.89V168.814ZM240.172 168.814C254.641 164.312 299.079 173.732 364.262 204.188V204.264C360.843 209.901 357.612 215.576 354.381 221.214C353.585 222.613 352.789 223.975 352.04 225.375C349.043 230.748 346.046 236.12 343.19 241.492C343.002 241.833 342.815 242.136 342.675 242.476C339.678 248.113 336.774 253.751 333.918 259.388C333.216 260.826 332.466 262.225 331.764 263.663C329.142 268.884 326.613 274.105 324.131 279.326C323.944 279.705 323.757 280.083 323.569 280.461C322.633 280.234 321.696 280.007 320.713 279.742C318.559 279.213 316.452 278.683 314.298 278.153C309.662 277.018 305.073 275.883 300.484 274.786C298.236 274.256 295.989 273.727 293.788 273.197C288.778 272.024 283.814 270.927 278.897 269.83C277.258 269.489 275.666 269.111 274.027 268.733C267.518 267.333 261.056 265.971 254.594 264.685C253.143 264.382 251.691 264.117 250.24 263.852C245.229 262.868 240.219 261.923 235.255 260.977C233.195 260.599 231.088 260.22 229.027 259.842C224.532 259.047 220.037 258.253 215.588 257.534C213.668 257.231 211.701 256.891 209.782 256.588C204.022 255.68 198.356 254.81 192.737 253.978C192.269 253.902 191.8 253.826 191.285 253.751H190.957C206.036 201.275 226.499 173.013 240.172 168.776V168.814Z" fill="#818359"/>
<path d="M679.965 365.474C671.817 352.951 599.19 243.119 555.501 243.119C511.812 243.119 439.184 352.951 431.037 365.474C399.288 414.279 346.094 510.187 346.094 604.053C346.094 606.777 346.094 609.425 346.187 612.111C358.409 614.041 370.724 615.781 383.04 617.37C382.899 612.982 382.806 608.555 382.806 604.053C382.806 519.57 430.521 431.418 458.992 386.396C499.778 321.851 540.61 281.483 555.501 273.613C570.392 281.483 611.224 321.851 652.01 386.396C680.48 431.418 728.196 519.532 728.196 604.053C728.196 608.82 728.102 613.473 727.915 618.051C740.23 616.538 752.546 614.911 764.814 613.095C764.861 610.106 764.908 607.08 764.908 604.053C764.908 510.187 711.666 414.279 679.965 365.474Z" fill="#818359"/>
<path d="M979.043 563.155C943.033 616.462 897.752 667.311 844.885 706.128C819.037 725.083 792.955 741.654 767.013 755.615C768.699 753.799 770.244 751.907 771.883 750.053C773.429 748.275 775.021 746.535 776.566 744.719C778.158 742.789 779.656 740.784 781.155 738.816C782.653 736.925 784.152 735.071 785.557 733.141C787.008 731.136 788.413 729.055 789.818 726.974C791.222 724.969 792.627 723.002 793.985 720.921C795.296 718.878 796.561 716.722 797.825 714.641C799.136 712.484 800.541 710.366 801.805 708.133C803.023 706.015 804.147 703.782 805.317 701.626C806.535 699.318 807.846 697.086 809.016 694.74C810.14 692.546 811.124 690.238 812.201 688.006C813.324 685.584 814.495 683.239 815.572 680.78C816.602 678.472 817.492 676.05 818.475 673.667C819.506 671.17 820.536 668.748 821.519 666.214C822.456 663.792 823.252 661.295 824.095 658.836C824.984 656.263 825.968 653.691 826.81 651.08C827.607 648.621 828.309 646.048 829.058 643.551C829.854 640.827 830.744 638.141 831.493 635.341C832.195 632.731 832.804 630.045 833.507 627.358C834.209 624.597 834.958 621.872 835.567 619.035C836.176 616.311 836.691 613.473 837.3 610.674C837.861 607.836 838.517 605.074 839.032 602.161C839.173 601.404 839.266 600.61 839.407 599.853C826.623 602.464 813.746 604.923 800.822 607.193C789.63 660.766 768.465 704.577 737.372 737.946C736.717 738.627 736.061 739.27 735.406 739.951C753.855 705.561 763.689 663.111 764.719 613.019C752.45 614.835 740.182 616.462 727.82 617.976C723.512 737.076 663.855 806.123 562.336 809.111C557.7 809.187 553.111 809.187 548.475 809.111C446.768 806.123 387.065 736.811 382.944 617.257C370.629 615.668 358.314 613.927 346.092 611.998C347.029 662.506 356.862 705.296 375.452 739.951C374.797 739.27 374.141 738.627 373.485 737.946C342.112 704.274 320.853 659.971 309.755 605.755C296.831 603.334 283.954 600.686 271.17 597.886C271.404 599.324 271.591 600.761 271.872 602.161C272.387 604.961 272.996 607.685 273.558 610.447C274.12 613.284 274.682 616.197 275.338 618.997C275.946 621.759 276.695 624.407 277.351 627.094C278.053 629.818 278.662 632.579 279.411 635.266C280.114 637.914 280.957 640.449 281.753 643.022C282.549 645.67 283.298 648.356 284.141 650.967C284.937 653.388 285.827 655.734 286.669 658.155C287.606 660.803 288.496 663.527 289.479 666.1C290.369 668.408 291.305 670.602 292.242 672.872C293.319 675.483 294.302 678.093 295.426 680.628C296.363 682.785 297.44 684.866 298.423 687.022C299.594 689.557 300.764 692.13 301.982 694.627C303.012 696.67 304.136 698.637 305.213 700.642C306.524 703.101 307.788 705.598 309.146 707.982C310.27 709.912 311.441 711.765 312.611 713.657C314.063 716.041 315.468 718.462 316.966 720.77C318.137 722.548 319.354 724.213 320.525 725.953C322.117 728.299 323.709 730.682 325.395 732.99C326.612 734.655 327.923 736.206 329.188 737.833C330.92 740.103 332.653 742.411 334.479 744.605C335.79 746.156 337.148 747.632 338.459 749.145C340.286 751.264 342.065 753.42 343.985 755.463C318.043 741.503 291.961 724.932 266.113 705.977C210.858 665.457 163.985 611.733 127.226 555.853C108.589 549.005 90.2801 541.665 72.2988 533.796C112.804 604.318 169.744 675.294 241.435 727.92C278.428 755.085 316.076 777.672 353.303 795.075C375.077 806.463 398.069 815.278 421.623 821.332C460.254 832.947 498.418 838.811 535.27 838.811C538.407 838.811 541.545 838.773 544.635 838.66C548.241 838.773 551.847 838.849 555.499 838.849C559.151 838.849 562.757 838.735 566.363 838.66C569.453 838.735 572.591 838.811 575.728 838.811C612.58 838.811 650.791 832.947 689.422 821.332C712.976 815.278 735.967 806.463 757.695 795.075C794.922 777.672 832.57 755.085 869.563 727.92C937.32 678.207 991.873 612.111 1031.86 545.486C1014.4 551.691 996.837 557.517 979.23 562.928L979.043 563.003V563.155Z" fill="#818359"/>
</svg>
